<?xml version="1.0" standalone="no"?>
<!DOCTYPE svg PUBLIC "-//W3C//DTD SVG 20010904//EN"
 "http://www.w3.org/TR/2001/REC-SVG-20010904/DTD/svg10.dtd">
<svg version="1.0" xmlns="http://www.w3.org/2000/svg"
 width="937.000000pt" height="937.000000pt" viewBox="0 0 937.000000 937.000000"
 preserveAspectRatio="xMidYMid meet">
<metadata>
Created by potrace 1.14, written by Peter Selinger 2001-2017
</metadata>
<g transform="translate(0.000000,937.000000) scale(0.100000,-0.100000)"
fill="#000000" stroke="none">
<path d="M4420 9290 c-1275 -76 -2418 -589 -3275 -1472 -533 -548 -914 -1199
-1119 -1912 l-26 -88 0 -1138 0 -1138 26 -88 c175 -609 481 -1175 908 -1684
169 -201 446 -468 673 -648 662 -524 1479 -876 2326 -1002 271 -40 452 -53
757 -53 305 0 486 13 757 53 1364 202 2586 970 3328 2089 252 380 438 773 559
1177 l36 121 0 1173 0 1173 -36 121 c-278 930 -895 1785 -1724 2386 -628 457
-1386 765 -2163 880 -312 46 -742 67 -1027 50z m2902 -2166 l116 -7 -25 -66
c-64 -174 -165 -365 -257 -491 l-33 -45 -122 7 c-67 3 -125 8 -127 11 -3 2 7
31 22 63 40 91 148 369 179 463 l27 83 52 -6 c28 -3 103 -8 168 -12z m-5384
-722 c7 -5 70 -177 141 -383 157 -457 181 -520 192 -513 13 8 63 109 99 198
29 73 103 321 170 574 l33 122 116 0 c64 0 177 -7 251 -15 74 -8 163 -15 198
-15 l62 0 0 -47 c0 -37 -74 -268 -311 -968 -172 -506 -315 -923 -319 -928 -3
-4 -37 -14 -76 -22 -55 -12 -113 -13 -281 -8 l-212 6 -36 85 c-57 136 -171
444 -335 902 -146 407 -250 691 -320 867 -43 109 -40 113 89 113 53 1 157 9
231 19 144 20 287 26 308 13z m2176 -3 c2 -2 -1 -150 -7 -329 -14 -469 -14
-1445 0 -1550 6 -47 11 -86 10 -86 -1 -1 -74 -10 -162 -20 -190 -21 -441 -24
-504 -5 l-43 12 6 87 c28 411 33 1383 7 1637 -6 55 -13 130 -17 167 l-6 66 73
7 c204 19 309 23 467 20 95 -1 174 -4 176 -6z m884 3 c7 -5 70 -177 141 -383
157 -457 181 -520 192 -513 13 8 63 109 99 198 29 73 103 321 170 574 l33 122
116 0 c64 0 177 -7 251 -15 74 -8 163 -15 198 -15 l62 0 0 -47 c0 -37 -74
-268 -311 -968 -172 -506 -315 -923 -319 -928 -3 -4 -37 -14 -76 -22 -55 -12
-113 -13 -281 -8 l-212 6 -36 85 c-57 136 -171 444 -335 902 -146 407 -250
691 -320 867 -43 109 -40 113 89 113 53 1 157 9 231 19 144 20 287 26 308 13z
m2395 -38 c111 -216 678 -1775 703 -1934 l7 -40 -322 0 -321 0 -30 41 c-32 44
-65 125 -83 202 l-11 49 -35 -6 c-20 -3 -169 -6 -331 -6 l-296 0 -38 -125
c-22 -68 -47 -132 -57 -141 -16 -14 -48 -15 -313 -9 l-296 8 0 27 c0 78 76
285 406 1106 128 320 254 635 278 700 24 66 49 130 54 144 l10 25 328 -2 328
-1 19 -38z m-5363 -2889 c172 -398 209 -499 170 -459 -8 8 -64 134 -91 202
l-9 24 -31 -26 c-37 -32 -46 -32 -84 -1 l-29 24 -32 -24 c-41 -31 -45 -31 -83
1 l-31 25 -33 -25 c-19 -14 -37 -26 -41 -26 -4 0 -22 11 -41 25 l-33 26 -30
-26 c-37 -31 -43 -31 -81 1 l-31 25 -15 -38 c-54 -132 -83 -188 -98 -191 -21
-4 -39 -49 178 453 97 225 183 425 191 443 10 25 19 33 35 30 17 -2 54 -81
219 -463z m920 450 c0 -13 -27 -15 -186 -15 -167 0 -185 -2 -174 -15 11 -13 8
-21 -18 -48 l-30 -32 28 -34 29 -34 -29 -36 -30 -35 32 -33 32 -33 -31 -32
-32 -33 20 -27 21 -28 149 0 c126 0 149 -2 149 -15 0 -13 -34 -15 -245 -15
l-245 0 0 -225 c0 -193 -2 -225 -15 -225 -13 0 -15 58 -15 465 l0 465 295 0
c256 0 295 -2 295 -15z m615 -17 c110 -57 171 -158 163 -270 -5 -75 -29 -129
-80 -180 -44 -44 -80 -64 -148 -81 l-51 -13 107 -135 c59 -74 123 -153 142
-176 29 -36 31 -43 16 -43 -12 0 -70 64 -163 180 l-145 180 -148 0 -148 0 0
-180 c0 -153 -2 -180 -15 -180 -13 0 -15 58 -15 466 l0 465 218 -3 c213 -3
218 -4 267 -30z m924 17 c141 -34 271 -140 334 -272 30 -64 32 -75 32 -179 0
-107 -1 -112 -38 -186 -153 -310 -570 -374 -818 -126 -35 34 -70 83 -91 125
-32 66 -33 72 -33 188 0 116 1 122 33 188 45 92 128 174 223 221 115 57 233
70 358 41z m872 -152 l0 -168 28 -22 29 -23 37 30 37 30 36 -30 35 -29 37 29
36 29 30 -24 c37 -31 49 -31 86 0 l30 25 37 -29 37 -29 32 26 32 27 0 163 c0
137 2 162 15 162 13 0 15 -58 15 -465 0 -407 -2 -465 -15 -465 -13 0 -15 26
-15 175 l0 175 -83 0 -84 0 -58 -45 c-35 -28 -62 -42 -69 -37 -6 5 -32 25 -57
45 -45 36 -49 37 -128 37 l-81 0 0 -175 c0 -149 -2 -175 -15 -175 -13 0 -15
58 -15 465 0 407 2 465 15 465 13 0 15 -26 16 -167z m1329 -298 c172 -398 209
-499 170 -459 -8 8 -64 134 -91 202 l-9 24 -31 -26 c-37 -32 -46 -32 -84 -1
l-29 24 -32 -24 c-41 -31 -45 -31 -83 1 l-31 25 -33 -25 c-19 -14 -37 -26 -41
-26 -4 0 -22 11 -41 25 l-33 26 -30 -26 c-37 -31 -43 -31 -81 1 l-31 25 -15
-38 c-54 -132 -83 -188 -98 -191 -21 -4 -39 -49 178 453 97 225 183 425 191
443 10 25 19 33 35 30 17 -2 54 -81 219 -463z m394 449 c40 -20 40 -49 0 -34
l-24 10 0 -173 0 -173 40 -39 40 -39 -40 -41 -40 -41 0 -172 0 -172 24 6 c38
9 38 -11 0 -29 -31 -15 -38 -15 -69 -3 -19 8 -35 19 -35 24 0 17 13 21 31 11
18 -9 19 -3 19 163 l0 172 -37 38 -36 37 36 45 37 44 0 172 c0 166 -1 170 -19
160 -14 -7 -22 -7 -26 1 -4 6 -5 12 -4 13 4 4 63 35 66 36 1 0 18 -7 37 -16z
m741 -16 c110 -57 171 -158 163 -270 -5 -75 -29 -129 -80 -180 -44 -44 -80
-64 -148 -81 l-51 -13 107 -135 c59 -74 123 -153 142 -176 29 -36 31 -43 16
-43 -12 0 -70 64 -163 180 l-145 180 -148 0 -148 0 0 -180 c0 -153 -2 -180
-15 -180 -13 0 -15 58 -15 466 l0 465 218 -3 c213 -3 218 -4 267 -30z m-5157
-91 c4 -20 -25 -34 -40 -19 -15 15 -1 44 19 40 10 -2 19 -11 21 -21z m0 -138
c3 -17 -23 -33 -39 -23 -5 3 -9 14 -9 25 0 15 6 20 22 17 13 -2 24 -10 26 -19z
m2775 -13 c3 -8 -1 -20 -9 -27 -12 -10 -18 -9 -31 3 -8 9 -12 21 -9 27 10 16
43 14 49 -3z m145 -7 c3 -17 -23 -33 -39 -23 -5 3 -9 14 -9 25 0 15 6 20 22
17 13 -2 24 -10 26 -19z m148 10 c3 -6 -1 -18 -10 -27 -15 -15 -17 -15 -32 0
-19 19 -11 38 16 38 10 0 22 -5 26 -11z m144 -9 c0 -24 -26 -38 -42 -22 -16
16 -2 42 22 42 13 0 20 -7 20 -20z m-3215 -115 c0 -13 -8 -21 -22 -23 -17 -3
-23 2 -23 16 0 10 3 22 7 26 13 13 38 1 38 -19z m-48 -207 l23 -21 24 22 c31
29 47 9 17 -23 -19 -20 -20 -24 -5 -45 14 -20 14 -24 1 -39 -14 -16 -14 -20 3
-42 11 -14 20 -28 20 -32 0 -15 -27 -8 -45 12 l-18 20 -23 -21 c-34 -32 -52
-13 -20 20 l26 28 -20 18 -20 18 20 22 20 21 -25 24 c-13 12 -22 27 -19 31 8
13 16 11 41 -13z m3110 -131 l-27 -21 27 -21 c38 -31 22 -52 -18 -24 -27 19
-31 20 -53 5 -21 -13 -26 -13 -36 -1 -16 20 -27 19 -58 -5 -17 -14 -29 -17
-35 -11 -7 7 -1 18 18 33 l28 22 -28 22 c-36 29 -14 44 25 16 25 -19 28 -19
43 -4 14 14 20 14 42 2 23 -12 28 -11 53 7 18 14 30 18 37 11 7 -7 1 -17 -18
-31z m-4039 -60 c4 -20 -25 -34 -40 -19 -15 15 -1 44 19 40 10 -2 19 -11 21
-21z m139 12 c16 -16 5 -39 -17 -39 -23 0 -32 13 -24 34 7 19 25 21 41 5z
m151 -12 c4 -20 -25 -34 -40 -19 -15 15 -1 44 19 40 10 -2 19 -11 21 -21z
m4370 0 c4 -20 -25 -34 -40 -19 -15 15 -1 44 19 40 10 -2 19 -11 21 -21z m139
12 c16 -16 5 -39 -17 -39 -23 0 -32 13 -24 34 7 19 25 21 41 5z m151 -12 c4
-20 -25 -34 -40 -19 -15 15 -1 44 19 40 10 -2 19 -11 21 -21z"/>
<path d="M7193 6983 c-3 -10 -29 -75 -59 -145 -29 -69 -56 -139 -59 -155 l-7
-28 21 25 c51 62 149 289 134 312 -8 14 -23 9 -30 -9z"/>
<path d="M1663 6173 c-7 -2 -13 -12 -13 -21 0 -9 125 -350 278 -759 l277 -743
70 0 70 0 59 173 c32 94 117 332 188 527 210 573 258 717 258 766 0 42 -1 44
-29 44 l-28 0 -198 -572 c-310 -898 -295 -858 -314 -858 -17 0 -28 25 -181
445 -132 361 -255 682 -327 853 -65 152 -72 161 -110 145z"/>
<path d="M3748 6143 c-17 -4 -18 -47 -18 -734 l0 -729 29 0 c24 0 29 5 35 31
3 17 6 167 7 333 1 165 4 468 8 671 4 204 4 380 -1 392 -8 25 -35 41 -60 36z"/>
<path d="M4723 6173 c-7 -2 -13 -12 -13 -21 0 -9 125 -350 278 -759 l277 -743
70 0 70 0 59 173 c32 94 117 332 188 527 210 573 258 717 258 766 0 42 -1 44
-29 44 l-28 0 -198 -572 c-310 -898 -295 -858 -314 -858 -17 0 -28 25 -181
445 -132 361 -255 682 -327 853 -65 152 -72 161 -110 145z"/>
<path d="M6918 6073 c-131 -286 -402 -933 -508 -1213 -70 -182 -76 -205 -62
-216 14 -10 22 1 58 81 23 52 52 112 65 134 l23 41 545 -2 545 -3 38 -70 c21
-38 46 -94 55 -124 19 -58 36 -72 59 -49 13 13 7 35 -52 189 -37 96 -119 302
-184 459 -289 704 -343 830 -359 834 -9 2 -55 7 -102 11 l-86 7 -35 -79z m406
-528 c120 -299 220 -553 223 -565 5 -20 3 -20 -501 -20 l-506 0 26 73 c70 194
413 1015 436 1045 6 6 32 12 57 12 l47 0 218 -545z"/>
<path d="M6963 5393 c-73 -148 -93 -204 -93 -256 0 -24 3 -27 25 -21 13 3 71
1 127 -6 101 -12 178 -4 192 19 3 4 -6 48 -19 97 -27 100 -89 232 -132 282
l-28 32 -72 -147z"/>
<path d="M1792 3873 c-5 -16 -13 -36 -17 -45 -6 -16 -1 -18 35 -18 23 0 40 3
38 8 -2 4 -10 24 -18 45 -17 44 -25 46 -38 10z"/>
<path d="M1742 3755 c-7 -14 -12 -28 -12 -30 0 -3 36 -5 80 -5 44 0 80 2 80 5
0 2 -5 16 -12 30 -10 22 -17 25 -68 25 -51 0 -58 -3 -68 -25z"/>
<path d="M1702 3665 c-7 -14 -12 -28 -12 -30 0 -3 54 -5 119 -5 l120 0 -10 30
-11 30 -97 0 c-95 0 -98 -1 -109 -25z"/>
<path d="M1603 3433 l-71 -166 29 -24 29 -24 33 25 c19 14 37 26 41 26 4 0 22
-11 41 -25 l33 -26 30 26 c37 31 47 31 84 0 l29 -25 33 25 c41 31 41 31 83 -1
l34 -26 25 23 c13 12 24 27 24 33 -1 6 -31 82 -68 168 l-68 156 -63 -49 c-35
-27 -68 -49 -73 -49 -6 0 -31 17 -57 38 -25 21 -53 43 -61 49 -13 10 -26 -14
-87 -154z m195 -15 c8 -8 15 -8 26 1 23 19 41 3 21 -19 -14 -16 -14 -18 0 -30
11 -9 13 -16 6 -23 -7 -7 -15 -6 -26 3 -12 10 -18 10 -30 0 -22 -18 -40 -2
-20 20 14 15 14 18 0 30 -8 7 -12 16 -9 21 7 12 18 11 32 -3z"/>
<path d="M1765 3565 c22 -19 42 -35 45 -34 3 0 23 15 45 34 l40 35 -85 -1 -85
0 40 -34z"/>
<path d="M2390 3700 l0 -210 25 0 25 0 0 210 0 210 -25 0 -25 0 0 -210z"/>
<path d="M2470 3700 l0 -210 35 0 c32 0 35 2 25 19 -5 11 -15 23 -21 27 -7 4
2 19 22 40 l33 34 -31 32 -32 32 30 37 30 38 -30 33 -30 33 31 32 c26 27 29
35 18 48 -7 8 -28 15 -46 15 l-34 0 0 -210z"/>
<path d="M3110 3878 c1 -25 12 -45 50 -86 l50 -53 0 85 0 86 -50 0 c-50 0 -50
0 -50 -32z"/>
<path d="M3240 3650 c0 -284 1 -287 55 -230 l29 30 -27 28 c-33 35 -33 42 -2
72 14 13 25 29 25 35 0 6 -11 22 -25 35 -31 30 -31 37 2 72 l27 28 -21 22
c-34 39 -35 47 -7 83 l27 36 -23 24 c-13 14 -32 25 -42 25 -17 0 -18 -15 -18
-260z"/>
<path d="M3339 3886 l23 -25 -26 -34 c-32 -42 -32 -44 1 -79 l27 -28 -32 -33
-32 -33 21 -20 c40 -36 42 -51 10 -86 l-30 -33 31 -32 32 -33 -22 -23 c-12
-13 -22 -27 -22 -32 0 -17 176 3 225 26 169 80 208 276 80 405 -63 63 -119 84
-229 84 l-79 0 22 -24z m91 -95 c0 -20 -17 -31 -37 -24 -7 3 -13 13 -13 24 0
14 7 19 25 19 18 0 25 -5 25 -19z m128 -113 c8 -8 15 -8 27 2 21 18 44 -2 27
-23 -9 -10 -9 -16 0 -25 19 -19 -6 -39 -27 -22 -12 10 -18 10 -30 0 -22 -18
-40 -2 -20 20 14 15 14 18 0 30 -8 7 -12 16 -9 21 7 12 18 11 32 -3z m-130
-21 c4 -20 -25 -34 -40 -19 -15 15 -1 44 19 40 10 -2 19 -11 21 -21z m0 -140
c4 -20 -25 -34 -40 -19 -15 15 -1 44 19 40 10 -2 19 -11 21 -21z"/>
<path d="M3110 3775 c0 -23 10 -41 40 -70 22 -21 40 -43 40 -48 0 -5 -18 -29
-40 -54 -25 -29 -40 -55 -40 -72 1 -24 4 -23 50 27 44 47 50 59 50 95 -1 36
-8 50 -50 97 l-49 55 -1 -30z"/>
<path d="M3110 3655 c0 -47 0 -48 20 -30 11 10 20 23 20 30 0 7 -9 20 -20 30
-20 18 -20 17 -20 -30z"/>
<path d="M3156 3509 c-36 -40 -46 -59 -46 -85 l0 -34 50 0 50 0 0 85 c0 47 -2
85 -4 85 -2 0 -25 -23 -50 -51z"/>
<path d="M4249 3900 c-46 -12 -149 -57 -149 -65 0 -4 10 -15 22 -25 22 -18 23
-17 59 11 l37 29 30 -25 c37 -31 49 -31 86 0 l30 24 36 -29 37 -29 36 30 37
30 37 -30 37 -31 23 22 23 21 -29 18 c-79 48 -258 73 -352 49z"/>
<path d="M4042 3793 c-21 -15 -92 -104 -92 -117 0 -3 187 -6 416 -6 l415 0
-18 30 c-30 52 -102 116 -117 105 -68 -50 -62 -49 -101 -20 l-35 27 -36 -27
c-25 -19 -41 -25 -49 -19 -66 49 -64 48 -88 27 -39 -35 -47 -36 -83 -8 l-35
27 -34 -26 c-18 -14 -37 -26 -40 -26 -3 0 -21 11 -39 25 -38 29 -34 29 -64 8z
m198 -73 c0 -24 -26 -38 -42 -22 -16 16 -2 42 22 42 13 0 20 -7 20 -20z m148
-3 c4 -20 -25 -34 -40 -19 -15 15 -1 44 19 40 10 -2 19 -11 21 -21z m148 12
c3 -6 -1 -18 -10 -27 -15 -15 -17 -15 -32 0 -19 19 -11 38 16 38 10 0 22 -5
26 -11z"/>
<path d="M3918 3613 c-7 -16 -12 -75 -12 -138 0 -63 5 -122 12 -137 l12 -28
434 0 435 0 16 52 c8 28 15 79 15 113 0 34 -7 85 -15 113 l-16 52 -435 0 -434
0 -12 -27z m394 -70 c17 -16 20 -16 35 0 16 15 18 15 35 0 17 -15 19 -15 38 2
14 12 24 15 30 9 7 -7 4 -16 -9 -28 -16 -15 -18 -21 -8 -37 9 -14 9 -21 -1
-31 -9 -9 -7 -17 9 -34 26 -28 7 -44 -22 -18 -18 16 -20 16 -37 1 -17 -15 -19
-15 -35 0 -15 16 -18 15 -36 -1 -29 -26 -48 -10 -21 19 18 20 19 23 5 35 -14
12 -14 15 0 30 14 15 13 18 -5 35 -11 10 -17 22 -14 26 8 13 15 11 36 -8z"/>
<path d="M4337 3492 c-16 -17 -16 -20 6 -40 l24 -22 18 20 c15 16 17 25 9 38
-16 24 -38 26 -57 4z"/>
<path d="M3950 3274 c0 -12 72 -104 93 -119 28 -20 30 -19 67 12 22 18 36 24
45 17 66 -49 61 -48 100 -19 l35 27 36 -27 35 -27 39 27 39 27 35 -27 36 -27
35 27 c39 29 33 30 101 -20 10 -7 26 2 60 35 25 25 52 57 60 73 l15 27 -416 0
c-228 0 -415 -3 -415 -6z m288 -42 c3 -17 -2 -22 -18 -22 -25 0 -38 29 -19 41
20 13 34 6 37 -19z m147 3 c0 -13 -8 -21 -22 -23 -17 -3 -23 2 -23 16 0 10 3
22 7 26 13 13 38 1 38 -19z m145 10 c15 -18 5 -35 -20 -35 -10 0 -22 5 -25 10
-7 11 12 40 25 40 4 0 13 -7 20 -15z"/>
<path d="M4115 3134 c-20 -15 -20 -15 -1 -30 42 -30 133 -56 217 -61 97 -6
165 6 247 44 51 24 53 26 36 44 -23 25 -37 24 -73 -7 l-31 -25 -33 25 c-19 14
-37 26 -41 26 -4 0 -22 -11 -41 -25 l-33 -26 -30 26 c-37 31 -43 31 -81 -1
l-31 -25 -33 25 c-39 30 -45 31 -72 10z"/>
<path d="M5452 3553 l-33 -26 -29 22 -30 22 0 -41 0 -40 280 0 280 0 0 41 c0
41 0 41 -22 25 -39 -28 -48 -29 -71 -9 -38 34 -46 35 -82 8 -35 -28 -43 -27
-82 8 -24 21 -22 22 -88 -27 -8 -6 -24 0 -47 17 -19 15 -37 27 -39 27 -2 -1
-19 -13 -37 -27z"/>
<path d="M5360 3425 l0 -35 280 0 280 0 0 35 0 35 -280 0 -280 0 0 -35z"/>
<path d="M5598 3335 c36 -30 39 -30 77 0 l30 25 -68 0 -69 0 30 -25z"/>
<path d="M6452 3873 c-5 -16 -13 -36 -17 -45 -6 -16 -1 -18 35 -18 23 0 40 3
38 8 -2 4 -10 24 -18 45 -17 44 -25 46 -38 10z"/>
<path d="M6402 3755 c-7 -14 -12 -28 -12 -30 0 -3 36 -5 80 -5 44 0 80 2 80 5
0 2 -5 16 -12 30 -10 22 -17 25 -68 25 -51 0 -58 -3 -68 -25z"/>
<path d="M6362 3665 c-7 -14 -12 -28 -12 -30 0 -3 54 -5 119 -5 l120 0 -10 30
-11 30 -97 0 c-95 0 -98 -1 -109 -25z"/>
<path d="M6263 3433 l-71 -166 29 -24 29 -24 33 25 c19 14 37 26 41 26 4 0 22
-11 41 -25 l33 -26 30 26 c37 31 47 31 84 0 l29 -25 33 25 c41 31 41 31 83 -1
l34 -26 25 23 c13 12 24 27 24 33 -1 6 -31 82 -68 168 l-68 156 -63 -49 c-35
-27 -68 -49 -73 -49 -6 0 -31 17 -57 38 -25 21 -53 43 -61 49 -13 10 -26 -14
-87 -154z m195 -15 c8 -8 15 -8 26 1 23 19 41 3 21 -19 -14 -16 -14 -18 0 -30
11 -9 13 -16 6 -23 -7 -7 -15 -6 -26 3 -12 10 -18 10 -30 0 -22 -18 -40 -2
-20 20 14 15 14 18 0 30 -8 7 -12 16 -9 21 7 12 18 11 32 -3z"/>
<path d="M6425 3565 c22 -19 42 -35 45 -34 3 0 23 15 45 34 l40 35 -85 -1 -85
0 40 -34z"/>
<path d="M7020 3495 l-23 -25 23 -25 24 -25 28 27 28 27 -22 23 c-27 29 -29
29 -58 -2z m48 -18 c4 -20 -25 -34 -40 -19 -15 15 -1 44 19 40 10 -2 19 -11
21 -21z"/>
<path d="M7370 3878 c1 -25 12 -45 50 -86 l50 -53 0 85 0 86 -50 0 c-50 0 -50
0 -50 -32z"/>
<path d="M7500 3650 c0 -284 1 -287 55 -230 l29 30 -27 28 c-33 35 -33 42 -2
72 14 13 25 29 25 35 0 6 -11 22 -25 35 -31 30 -31 37 2 72 l27 28 -21 22
c-34 39 -35 47 -7 83 l27 36 -23 24 c-13 14 -32 25 -42 25 -17 0 -18 -15 -18
-260z"/>
<path d="M7599 3886 l23 -25 -26 -34 c-32 -42 -32 -44 1 -79 l27 -28 -32 -33
-32 -33 21 -20 c40 -36 42 -51 10 -86 l-30 -33 31 -32 32 -33 -22 -23 c-12
-13 -22 -27 -22 -32 0 -17 176 3 225 26 169 80 208 276 80 405 -63 63 -119 84
-229 84 l-79 0 22 -24z m91 -95 c0 -20 -17 -31 -37 -24 -7 3 -13 13 -13 24 0
14 7 19 25 19 18 0 25 -5 25 -19z m128 -113 c8 -8 15 -8 27 2 21 18 44 -2 27
-23 -9 -10 -9 -16 0 -25 19 -19 -6 -39 -27 -22 -12 10 -18 10 -30 0 -22 -18
-40 -2 -20 20 14 15 14 18 0 30 -8 7 -12 16 -9 21 7 12 18 11 32 -3z m-130
-21 c4 -20 -25 -34 -40 -19 -15 15 -1 44 19 40 10 -2 19 -11 21 -21z m0 -140
c4 -20 -25 -34 -40 -19 -15 15 -1 44 19 40 10 -2 19 -11 21 -21z"/>
<path d="M7370 3775 c0 -23 10 -41 40 -70 22 -21 40 -43 40 -48 0 -5 -18 -29
-40 -54 -25 -29 -40 -55 -40 -72 1 -24 4 -23 50 27 44 47 50 59 50 95 -1 36
-8 50 -50 97 l-49 55 -1 -30z"/>
<path d="M7370 3655 c0 -47 0 -48 20 -30 11 10 20 23 20 30 0 7 -9 20 -20 30
-20 18 -20 17 -20 -30z"/>
<path d="M7416 3509 c-36 -40 -46 -59 -46 -85 l0 -34 50 0 50 0 0 85 c0 47 -2
85 -4 85 -2 0 -25 -23 -50 -51z"/>
<path d="M2626 3262 c-3 -6 -1 -14 5 -17 15 -10 25 3 12 16 -7 7 -13 7 -17 1z"/>
<path d="M5626 3191 c-4 -5 -2 -12 3 -15 5 -4 12 -2 15 3 4 5 2 12 -3 15 -5 4
-12 2 -15 -3z"/>
</g>
</svg>
